<svg id="visual" viewBox="0 0 1920 1080" width="1920" height="1080" xmlns="http://www.w3.org/2000/svg" xmlns:xlink="http://www.w3.org/1999/xlink" version="1.1"><g stroke-width="1" stroke-linejoin="bevel"><path d="M860.3 528L1037.7 320L838.3 318Z" fill="#5e5e5e" stroke="#6a6a6a"></path><path d="M860.3 528L1101.7 548L1037.7 320Z" fill="#666666" stroke="#6a6a6a"></path><path d="M1037.7 320L884.3 162L838.3 318Z" fill="#5d5d5d" stroke="#6a6a6a"></path><path d="M1240 172L1081.7 194L1037.7 320Z" fill="#616161" stroke="#6a6a6a"></path><path d="M1037.7 320L1081.7 194L884.3 162Z" fill="#616161" stroke="#6a6a6a"></path><path d="M860.3 528L1079.7 721L1101.7 548Z" fill="#626262" stroke="#6a6a6a"></path><path d="M607 203L598 370L838.3 318Z" fill="#6a6a6a" stroke="#6a6a6a"></path><path d="M838.3 318L598 370L860.3 528Z" fill="#646464" stroke="#6a6a6a"></path><path d="M860.3 528L822.3 756L1079.7 721Z" fill="#5f5f5f" stroke="#6a6a6a"></path><path d="M608 578L822.3 756L860.3 528Z" fill="#5f5f5f" stroke="#6a6a6a"></path><path d="M598 370L608 578L860.3 528Z" fill="#5f5f5f" stroke="#6a6a6a"></path><path d="M1323 504L1322 377L1101.7 548Z" fill="#646464" stroke="#6a6a6a"></path><path d="M1101.7 548L1322 377L1037.7 320Z" fill="#696969" stroke="#6a6a6a"></path><path d="M1322 377L1240 172L1037.7 320Z" fill="#666666" stroke="#6a6a6a"></path><path d="M1087.7 0L827.3 0L884.3 162Z" fill="#666666" stroke="#6a6a6a"></path><path d="M884.3 162L607 203L838.3 318Z" fill="#666666" stroke="#6a6a6a"></path><path d="M1307 708L1323 504L1101.7 548Z" fill="#696969" stroke="#6a6a6a"></path><path d="M1087.7 0L884.3 162L1081.7 194Z" fill="#646464" stroke="#6a6a6a"></path><path d="M884.3 162L827.3 0L607 203Z" fill="#6a6a6a" stroke="#6a6a6a"></path><path d="M1240 172L1087.7 0L1081.7 194Z" fill="#5d5d5d" stroke="#6a6a6a"></path><path d="M607 203L467.7 374L598 370Z" fill="#676767" stroke="#6a6a6a"></path><path d="M598 370L447.7 543L608 578Z" fill="#646464" stroke="#6a6a6a"></path><path d="M1096.7 859L1307 708L1079.7 721Z" fill="#636363" stroke="#6a6a6a"></path><path d="M1079.7 721L1307 708L1101.7 548Z" fill="#6a6a6a" stroke="#6a6a6a"></path><path d="M857.3 881L1096.7 859L1079.7 721Z" fill="#666666" stroke="#6a6a6a"></path><path d="M632 911L857.3 881L822.3 756Z" fill="#646464" stroke="#6a6a6a"></path><path d="M822.3 756L857.3 881L1079.7 721Z" fill="#676767" stroke="#6a6a6a"></path><path d="M608 578L610 759L822.3 756Z" fill="#5d5d5d" stroke="#6a6a6a"></path><path d="M408.7 722L610 759L608 578Z" fill="#696969" stroke="#6a6a6a"></path><path d="M467.7 374L447.7 543L598 370Z" fill="#5f5f5f" stroke="#6a6a6a"></path><path d="M827.3 0L638 0L607 203Z" fill="#616161" stroke="#6a6a6a"></path><path d="M607 203L416.7 171L467.7 374Z" fill="#696969" stroke="#6a6a6a"></path><path d="M1522.3 179L1269 0L1240 172Z" fill="#6a6a6a" stroke="#6a6a6a"></path><path d="M1240 172L1269 0L1087.7 0Z" fill="#5f5f5f" stroke="#6a6a6a"></path><path d="M1323 504L1472.3 386L1322 377Z" fill="#6a6a6a" stroke="#6a6a6a"></path><path d="M1322 377L1522.3 179L1240 172Z" fill="#5d5d5d" stroke="#6a6a6a"></path><path d="M1508.3 568L1472.3 386L1323 504Z" fill="#696969" stroke="#6a6a6a"></path><path d="M638 0L416.7 171L607 203Z" fill="#5d5d5d" stroke="#6a6a6a"></path><path d="M467.7 374L185.3 338L447.7 543Z" fill="#646464" stroke="#6a6a6a"></path><path d="M435.7 883L632 911L610 759Z" fill="#5e5e5e" stroke="#6a6a6a"></path><path d="M610 759L632 911L822.3 756Z" fill="#626262" stroke="#6a6a6a"></path><path d="M1084.7 1080L1302 922L1096.7 859Z" fill="#5d5d5d" stroke="#6a6a6a"></path><path d="M1465.3 706L1508.3 568L1323 504Z" fill="#626262" stroke="#6a6a6a"></path><path d="M1465.3 706L1323 504L1307 708Z" fill="#5f5f5f" stroke="#6a6a6a"></path><path d="M1302 922L1465.3 706L1307 708Z" fill="#5e5e5e" stroke="#6a6a6a"></path><path d="M174.3 574L408.7 722L447.7 543Z" fill="#5d5d5d" stroke="#6a6a6a"></path><path d="M447.7 543L408.7 722L608 578Z" fill="#666666" stroke="#6a6a6a"></path><path d="M1096.7 859L1302 922L1307 708Z" fill="#646464" stroke="#6a6a6a"></path><path d="M1084.7 1080L1096.7 859L857.3 881Z" fill="#6a6a6a" stroke="#6a6a6a"></path><path d="M1472.3 386L1522.3 179L1322 377Z" fill="#696969" stroke="#6a6a6a"></path><path d="M1681.7 364L1522.3 179L1472.3 386Z" fill="#646464" stroke="#6a6a6a"></path><path d="M632 911L875.3 1080L857.3 881Z" fill="#626262" stroke="#6a6a6a"></path><path d="M638 0L405.7 0L416.7 171Z" fill="#6a6a6a" stroke="#6a6a6a"></path><path d="M416.7 171L254.3 214L467.7 374Z" fill="#5d5d5d" stroke="#6a6a6a"></path><path d="M875.3 1080L1084.7 1080L857.3 881Z" fill="#6a6a6a" stroke="#6a6a6a"></path><path d="M408.7 722L435.7 883L610 759Z" fill="#616161" stroke="#6a6a6a"></path><path d="M632 911L627 1080L875.3 1080Z" fill="#666666" stroke="#6a6a6a"></path><path d="M1522.3 179L1498.3 0L1269 0Z" fill="#646464" stroke="#6a6a6a"></path><path d="M405.7 0L254.3 214L416.7 171Z" fill="#676767" stroke="#6a6a6a"></path><path d="M408.7 722L252.3 916L435.7 883Z" fill="#636363" stroke="#6a6a6a"></path><path d="M435.7 883L627 1080L632 911Z" fill="#666666" stroke="#6a6a6a"></path><path d="M1734.7 572L1681.7 364L1508.3 568Z" fill="#6a6a6a" stroke="#6a6a6a"></path><path d="M1508.3 568L1681.7 364L1472.3 386Z" fill="#666666" stroke="#6a6a6a"></path><path d="M1522.3 179L1738.7 137L1498.3 0Z" fill="#5f5f5f" stroke="#6a6a6a"></path><path d="M254.3 214L185.3 338L467.7 374Z" fill="#5f5f5f" stroke="#6a6a6a"></path><path d="M1302 922L1520.3 902L1465.3 706Z" fill="#5e5e5e" stroke="#6a6a6a"></path><path d="M1740.7 679L1734.7 572L1508.3 568Z" fill="#696969" stroke="#6a6a6a"></path><path d="M1466.3 1080L1520.3 902L1302 922Z" fill="#666666" stroke="#6a6a6a"></path><path d="M1084.7 1080L1305 1080L1302 922Z" fill="#5f5f5f" stroke="#6a6a6a"></path><path d="M185.3 338L174.3 574L447.7 543Z" fill="#616161" stroke="#6a6a6a"></path><path d="M1740.7 679L1508.3 568L1465.3 706Z" fill="#626262" stroke="#6a6a6a"></path><path d="M174.3 574L169.3 706L408.7 722Z" fill="#676767" stroke="#6a6a6a"></path><path d="M435.7 883L395.7 1080L627 1080Z" fill="#5d5d5d" stroke="#6a6a6a"></path><path d="M1520.3 902L1740.7 679L1465.3 706Z" fill="#696969" stroke="#6a6a6a"></path><path d="M1920 350L1681.7 364L1734.7 572Z" fill="#6a6a6a" stroke="#6a6a6a"></path><path d="M1920 350L1738.7 137L1681.7 364Z" fill="#646464" stroke="#6a6a6a"></path><path d="M1681.7 364L1738.7 137L1522.3 179Z" fill="#6a6a6a" stroke="#6a6a6a"></path><path d="M169.3 706L252.3 916L408.7 722Z" fill="#666666" stroke="#6a6a6a"></path><path d="M1520.3 902L1748.7 910L1740.7 679Z" fill="#5d5d5d" stroke="#6a6a6a"></path><path d="M1305 1080L1466.3 1080L1302 922Z" fill="#646464" stroke="#6a6a6a"></path><path d="M252.3 916L395.7 1080L435.7 883Z" fill="#626262" stroke="#6a6a6a"></path><path d="M0 208L0 327L185.3 338Z" fill="#626262" stroke="#6a6a6a"></path><path d="M185.3 338L0 536L174.3 574Z" fill="#6a6a6a" stroke="#6a6a6a"></path><path d="M174.3 574L0 729L169.3 706Z" fill="#5f5f5f" stroke="#6a6a6a"></path><path d="M405.7 0L172.3 0L254.3 214Z" fill="#5e5e5e" stroke="#6a6a6a"></path><path d="M1920 0L1744.7 0L1738.7 137Z" fill="#5e5e5e" stroke="#6a6a6a"></path><path d="M1738.7 137L1744.7 0L1498.3 0Z" fill="#666666" stroke="#6a6a6a"></path><path d="M0 208L185.3 338L254.3 214Z" fill="#5f5f5f" stroke="#6a6a6a"></path><path d="M169.3 706L0 936L252.3 916Z" fill="#676767" stroke="#6a6a6a"></path><path d="M0 327L0 536L185.3 338Z" fill="#666666" stroke="#6a6a6a"></path><path d="M1678.7 1080L1748.7 910L1520.3 902Z" fill="#666666" stroke="#6a6a6a"></path><path d="M1920 537L1920 350L1734.7 572Z" fill="#5d5d5d" stroke="#6a6a6a"></path><path d="M172.3 0L0 208L254.3 214Z" fill="#646464" stroke="#6a6a6a"></path><path d="M1920 537L1734.7 572L1740.7 679Z" fill="#676767" stroke="#6a6a6a"></path><path d="M0 536L0 729L174.3 574Z" fill="#666666" stroke="#6a6a6a"></path><path d="M252.3 916L201.3 1080L395.7 1080Z" fill="#626262" stroke="#6a6a6a"></path><path d="M1920 728L1920 537L1740.7 679Z" fill="#6a6a6a" stroke="#6a6a6a"></path><path d="M0 936L201.3 1080L252.3 916Z" fill="#5d5d5d" stroke="#6a6a6a"></path><path d="M1466.3 1080L1678.7 1080L1520.3 902Z" fill="#6a6a6a" stroke="#6a6a6a"></path><path d="M1748.7 910L1920 728L1740.7 679Z" fill="#676767" stroke="#6a6a6a"></path><path d="M1920 350L1920 167L1738.7 137Z" fill="#696969" stroke="#6a6a6a"></path><path d="M172.3 0L0 0L0 208Z" fill="#616161" stroke="#6a6a6a"></path><path d="M1920 891L1920 728L1748.7 910Z" fill="#5f5f5f" stroke="#6a6a6a"></path><path d="M1920 167L1920 0L1738.7 137Z" fill="#6a6a6a" stroke="#6a6a6a"></path><path d="M0 729L0 936L169.3 706Z" fill="#5d5d5d" stroke="#6a6a6a"></path><path d="M1920 1080L1920 891L1748.7 910Z" fill="#646464" stroke="#6a6a6a"></path><path d="M0 936L0 1080L201.3 1080Z" fill="#616161" stroke="#6a6a6a"></path><path d="M1678.7 1080L1920 1080L1748.7 910Z" fill="#636363" stroke="#6a6a6a"></path></g></svg>