<svg id="visual" viewBox="0 0 1920 1080" width="1920" height="1080" xmlns="http://www.w3.org/2000/svg" xmlns:xlink="http://www.w3.org/1999/xlink" version="1.1"><path d="M1804 1080L1804 720L1823 360L1804 0L1920 0L1920 360L1920 720L1920 1080Z" fill="#6a6a6a"></path><path d="M1554 1080L1516 720L1593 360L1573 0L1805 0L1824 360L1805 720L1805 1080Z" fill="#678196"></path><path d="M1209 1080L1170 720L1189 360L1247 0L1574 0L1594 360L1517 720L1555 1080Z" fill="#5a9ac4"></path><path d="M1074 1080L1055 720L1093 360L1113 0L1248 0L1190 360L1171 720L1210 1080Z" fill="#30b4f3"></path><path d="M863 1080L901 720L882 360L882 0L1114 0L1094 360L1056 720L1075 1080Z" fill="#1ab9fd"></path><path d="M748 1080L748 720L748 360L767 0L883 0L883 360L902 720L864 1080Z" fill="#30b4f3"></path><path d="M613 1080L575 720L556 360L613 0L768 0L749 360L749 720L749 1080Z" fill="#5a9ac4"></path><path d="M517 1080L460 720L421 360L479 0L614 0L557 360L576 720L614 1080Z" fill="#678196"></path><path d="M0 1080L0 720L0 360L0 0L480 0L422 360L461 720L518 1080Z" fill="#6a6a6a"></path></svg>