<svg id="visual" viewBox="0 0 1920 1080" width="1920" height="1080" xmlns="http://www.w3.org/2000/svg" xmlns:xlink="http://www.w3.org/1999/xlink" version="1.1"><rect x="0" y="0" width="1920" height="1080" fill="#1ab9fd"></rect><path d="M1555 0L1456.3 22.5C1357.7 45 1160.3 90 1166.3 135C1172.3 180 1381.7 225 1485.7 270C1589.7 315 1588.3 360 1546.5 405C1504.7 450 1422.3 495 1422.5 540C1422.7 585 1505.3 630 1459 675C1412.7 720 1237.3 765 1219.5 810C1201.7 855 1341.3 900 1372.7 945C1404 990 1327 1035 1288.5 1057.5L1250 1080L0 1080L0 1057.5C0 1035 0 990 0 945C0 900 0 855 0 810C0 765 0 720 0 675C0 630 0 585 0 540C0 495 0 450 0 405C0 360 0 315 0 270C0 225 0 180 0 135C0 90 0 45 0 22.5L0 0Z" fill="#6a6a6a"></path><path d="M912 0L910 22.5C908 45 904 90 939.2 135C974.3 180 1048.7 225 1017.2 270C985.7 315 848.3 360 819.2 405C790 450 869 495 958.2 540C1047.3 585 1146.7 630 1177.8 675C1209 720 1172 765 1129.8 810C1087.7 855 1040.3 900 976.2 945C912 990 831 1035 790.5 1057.5L750 1080L0 1080L0 1057.5C0 1035 0 990 0 945C0 900 0 855 0 810C0 765 0 720 0 675C0 630 0 585 0 540C0 495 0 450 0 405C0 360 0 315 0 270C0 225 0 180 0 135C0 90 0 45 0 22.5L0 0Z" fill="#616060"></path><path d="M591 0L649 22.5C707 45 823 90 823 135C823 180 707 225 692.5 270C678 315 765 360 798.7 405C832.3 450 812.7 495 810.2 540C807.7 585 822.3 630 854 675C885.7 720 934.3 765 909.2 810C884 855 785 900 783.7 945C782.3 990 878.7 1035 926.8 1057.5L975 1080L0 1080L0 1057.5C0 1035 0 990 0 945C0 900 0 855 0 810C0 765 0 720 0 675C0 630 0 585 0 540C0 495 0 450 0 405C0 360 0 315 0 270C0 225 0 180 0 135C0 90 0 45 0 22.5L0 0Z" fill="#585656"></path><path d="M470 0L505.2 22.5C540.3 45 610.7 90 650.7 135C690.7 180 700.3 225 696.8 270C693.3 315 676.7 360 631.2 405C585.7 450 511.3 495 517.8 540C524.3 585 611.7 630 630.8 675C650 720 601 765 588.5 810C576 855 600 900 565 945C530 990 436 1035 389 1057.5L342 1080L0 1080L0 1057.5C0 1035 0 990 0 945C0 900 0 855 0 810C0 765 0 720 0 675C0 630 0 585 0 540C0 495 0 450 0 405C0 360 0 315 0 270C0 225 0 180 0 135C0 90 0 45 0 22.5L0 0Z" fill="#4f4c4c"></path><path d="M142 0L153.7 22.5C165.3 45 188.7 90 218 135C247.3 180 282.7 225 322 270C361.3 315 404.7 360 398.5 405C392.3 450 336.7 495 298.5 540C260.3 585 239.7 630 216.5 675C193.3 720 167.7 765 189.5 810C211.3 855 280.7 900 282.2 945C283.7 990 217.3 1035 184.2 1057.5L151 1080L0 1080L0 1057.5C0 1035 0 990 0 945C0 900 0 855 0 810C0 765 0 720 0 675C0 630 0 585 0 540C0 495 0 450 0 405C0 360 0 315 0 270C0 225 0 180 0 135C0 90 0 45 0 22.5L0 0Z" fill="#464343"></path></svg>