<svg id="visual" viewBox="0 0 1920 1080" width="1920" height="1080" xmlns="http://www.w3.org/2000/svg" xmlns:xlink="http://www.w3.org/1999/xlink" version="1.1"><rect x="0" y="0" width="1920" height="1080" fill="#1ab9fd"></rect><path d="M301 1080L312.8 1057.5C324.7 1035 348.3 990 363.7 945C379 900 386 855 372.3 810C358.7 765 324.3 720 346.5 675C368.7 630 447.3 585 528.7 540C610 495 694 450 694 405C694 360 610 315 541 270C472 225 418 180 473.3 135C528.7 90 693.3 45 775.7 22.5L858 0L1920 0L1920 22.5C1920 45 1920 90 1920 135C1920 180 1920 225 1920 270C1920 315 1920 360 1920 405C1920 450 1920 495 1920 540C1920 585 1920 630 1920 675C1920 720 1920 765 1920 810C1920 855 1920 900 1920 945C1920 990 1920 1035 1920 1057.5L1920 1080Z" fill="#868686"></path><path d="M936 1080L943.3 1057.5C950.7 1035 965.3 990 909.7 945C854 900 728 855 683.7 810C639.3 765 676.7 720 722.3 675C768 630 822 585 825 540C828 495 780 450 755.5 405C731 360 730 315 762.3 270C794.7 225 860.3 180 816 135C771.7 90 617.3 45 540.2 22.5L463 0L1920 0L1920 22.5C1920 45 1920 90 1920 135C1920 180 1920 225 1920 270C1920 315 1920 360 1920 405C1920 450 1920 495 1920 540C1920 585 1920 630 1920 675C1920 720 1920 765 1920 810C1920 855 1920 900 1920 945C1920 990 1920 1035 1920 1057.5L1920 1080Z" fill="#7e7e7e"></path><path d="M666 1080L735.3 1057.5C804.7 1035 943.3 990 1007.8 945C1072.3 900 1062.7 855 1023.2 810C983.7 765 914.3 720 848.5 675C782.7 630 720.3 585 760.7 540C801 495 944 450 1008.8 405C1073.7 360 1060.3 315 1051.3 270C1042.3 225 1037.7 180 1026.7 135C1015.7 90 998.3 45 989.7 22.5L981 0L1920 0L1920 22.5C1920 45 1920 90 1920 135C1920 180 1920 225 1920 270C1920 315 1920 360 1920 405C1920 450 1920 495 1920 540C1920 585 1920 630 1920 675C1920 720 1920 765 1920 810C1920 855 1920 900 1920 945C1920 990 1920 1035 1920 1057.5L1920 1080Z" fill="#767676"></path><path d="M823 1080L832 1057.5C841 1035 859 990 903 945C947 900 1017 855 1071.8 810C1126.7 765 1166.3 720 1119 675C1071.7 630 937.3 585 932.5 540C927.7 495 1052.3 450 1114.7 405C1177 360 1177 315 1174 270C1171 225 1165 180 1122.3 135C1079.7 90 1000.3 45 960.7 22.5L921 0L1920 0L1920 22.5C1920 45 1920 90 1920 135C1920 180 1920 225 1920 270C1920 315 1920 360 1920 405C1920 450 1920 495 1920 540C1920 585 1920 630 1920 675C1920 720 1920 765 1920 810C1920 855 1920 900 1920 945C1920 990 1920 1035 1920 1057.5L1920 1080Z" fill="#6e6e6e"></path><path d="M1128 1080L1160.8 1057.5C1193.7 1035 1259.3 990 1284.8 945C1310.3 900 1295.7 855 1269.7 810C1243.7 765 1206.3 720 1176.3 675C1146.3 630 1123.7 585 1113.7 540C1103.7 495 1106.3 450 1115.8 405C1125.3 360 1141.7 315 1135.3 270C1129 225 1100 180 1120.8 135C1141.7 90 1212.3 45 1247.7 22.5L1283 0L1920 0L1920 22.5C1920 45 1920 90 1920 135C1920 180 1920 225 1920 270C1920 315 1920 360 1920 405C1920 450 1920 495 1920 540C1920 585 1920 630 1920 675C1920 720 1920 765 1920 810C1920 855 1920 900 1920 945C1920 990 1920 1035 1920 1057.5L1920 1080Z" fill="#666666"></path><path d="M1261 1080L1262 1057.5C1263 1035 1265 990 1244 945C1223 900 1179 855 1169.3 810C1159.7 765 1184.3 720 1188.3 675C1192.3 630 1175.7 585 1179.3 540C1183 495 1207 450 1221.7 405C1236.3 360 1241.7 315 1272.3 270C1303 225 1359 180 1377 135C1395 90 1375 45 1365 22.5L1355 0L1920 0L1920 22.5C1920 45 1920 90 1920 135C1920 180 1920 225 1920 270C1920 315 1920 360 1920 405C1920 450 1920 495 1920 540C1920 585 1920 630 1920 675C1920 720 1920 765 1920 810C1920 855 1920 900 1920 945C1920 990 1920 1035 1920 1057.5L1920 1080Z" fill="#5e5e5e"></path><path d="M1414 1080L1395.3 1057.5C1376.7 1035 1339.3 990 1365.3 945C1391.3 900 1480.7 855 1521.5 810C1562.3 765 1554.7 720 1529.3 675C1504 630 1461 585 1424 540C1387 495 1356 450 1345 405C1334 360 1343 315 1371.8 270C1400.7 225 1449.3 180 1477.8 135C1506.3 90 1514.7 45 1518.8 22.5L1523 0L1920 0L1920 22.5C1920 45 1920 90 1920 135C1920 180 1920 225 1920 270C1920 315 1920 360 1920 405C1920 450 1920 495 1920 540C1920 585 1920 630 1920 675C1920 720 1920 765 1920 810C1920 855 1920 900 1920 945C1920 990 1920 1035 1920 1057.5L1920 1080Z" fill="#575757"></path><path d="M1631 1080L1605.3 1057.5C1579.7 1035 1528.3 990 1535.2 945C1542 900 1607 855 1642 810C1677 765 1682 720 1687.5 675C1693 630 1699 585 1692.8 540C1686.7 495 1668.3 450 1635.3 405C1602.3 360 1554.7 315 1557.7 270C1560.7 225 1614.3 180 1632.8 135C1651.3 90 1634.7 45 1626.3 22.5L1618 0L1920 0L1920 22.5C1920 45 1920 90 1920 135C1920 180 1920 225 1920 270C1920 315 1920 360 1920 405C1920 450 1920 495 1920 540C1920 585 1920 630 1920 675C1920 720 1920 765 1920 810C1920 855 1920 900 1920 945C1920 990 1920 1035 1920 1057.5L1920 1080Z" fill="#4f4f4f"></path><path d="M1782 1080L1783.2 1057.5C1784.3 1035 1786.7 990 1766.5 945C1746.3 900 1703.7 855 1678.3 810C1653 765 1645 720 1657.7 675C1670.3 630 1703.7 585 1720 540C1736.3 495 1735.7 450 1747.7 405C1759.7 360 1784.3 315 1770.3 270C1756.3 225 1703.7 180 1677.3 135C1651 90 1651 45 1651 22.5L1651 0L1920 0L1920 22.5C1920 45 1920 90 1920 135C1920 180 1920 225 1920 270C1920 315 1920 360 1920 405C1920 450 1920 495 1920 540C1920 585 1920 630 1920 675C1920 720 1920 765 1920 810C1920 855 1920 900 1920 945C1920 990 1920 1035 1920 1057.5L1920 1080Z" fill="#484848"></path></svg>