<svg id="visual" viewBox="0 0 1920 1080" width="1920" height="1080" xmlns="http://www.w3.org/2000/svg" xmlns:xlink="http://www.w3.org/1999/xlink" version="1.1"><g stroke-width="1" stroke-linejoin="bevel"><path d="M1009.3 455.9L857.7 332.6L897.7 440.9Z" fill="#ffffff" stroke="#ffffff"></path><path d="M1009.3 455.9L1086.3 334.6L857.7 332.6Z" fill="#eeeeee" stroke="#eeeeee"></path><path d="M1086.3 334.6L1022.3 161.3L857.7 332.6Z" fill="#eaeaea" stroke="#eaeaea"></path><path d="M1022.3 161.3L845.7 170.3L857.7 332.6Z" fill="#f4f4f4" stroke="#f4f4f4"></path><path d="M1259.8 444.9L1226.8 307.6L1086.3 334.6Z" fill="#eaeaea" stroke="#eaeaea"></path><path d="M1086.3 334.6L1225.8 184.3L1022.3 161.3Z" fill="#fbfbfb" stroke="#fbfbfb"></path><path d="M845.7 170.3L686.2 304.6L857.7 332.6Z" fill="#f6f6f6" stroke="#f6f6f6"></path><path d="M857.7 332.6L669.2 474.9L897.7 440.9Z" fill="#eaeaea" stroke="#eaeaea"></path><path d="M717.2 627.1L866.7 628.1L897.7 440.9Z" fill="#eeeeee" stroke="#eeeeee"></path><path d="M897.7 440.9L866.7 628.1L1009.3 455.9Z" fill="#f0f0f0" stroke="#f0f0f0"></path><path d="M1009.3 455.9L1259.8 444.9L1086.3 334.6Z" fill="#eeeeee" stroke="#eeeeee"></path><path d="M1082.3 650.1L1259.8 444.9L1009.3 455.9Z" fill="#ffffff" stroke="#ffffff"></path><path d="M1364.4 272.6L1225.8 184.3L1226.8 307.6Z" fill="#f4f4f4" stroke="#f4f4f4"></path><path d="M1226.8 307.6L1225.8 184.3L1086.3 334.6Z" fill="#eaeaea" stroke="#eaeaea"></path><path d="M866.7 628.1L1082.3 650.1L1009.3 455.9Z" fill="#fdfdfd" stroke="#fdfdfd"></path><path d="M686.2 304.6L669.2 474.9L857.7 332.6Z" fill="#eaeaea" stroke="#eaeaea"></path><path d="M1248.8 0L1020.3 0L1022.3 161.3Z" fill="#f6f6f6" stroke="#f6f6f6"></path><path d="M1022.3 161.3L870.7 0L845.7 170.3Z" fill="#f0f0f0" stroke="#f0f0f0"></path><path d="M845.7 170.3L665.2 150.3L686.2 304.6Z" fill="#f2f2f2" stroke="#f2f2f2"></path><path d="M665.2 0L665.2 150.3L845.7 170.3Z" fill="#f4f4f4" stroke="#f4f4f4"></path><path d="M686.2 304.6L504.6 301.6L669.2 474.9Z" fill="#f0f0f0" stroke="#f0f0f0"></path><path d="M1020.3 0L870.7 0L1022.3 161.3Z" fill="#eeeeee" stroke="#eeeeee"></path><path d="M669.2 474.9L717.2 627.1L897.7 440.9Z" fill="#fbfbfb" stroke="#fbfbfb"></path><path d="M866.7 628.1L895.7 755.4L1082.3 650.1Z" fill="#ececec" stroke="#ececec"></path><path d="M1387.4 425.9L1364.4 272.6L1226.8 307.6Z" fill="#f2f2f2" stroke="#f2f2f2"></path><path d="M1225.8 184.3L1248.8 0L1022.3 161.3Z" fill="#fdfdfd" stroke="#fdfdfd"></path><path d="M691.2 752.4L895.7 755.4L866.7 628.1Z" fill="#fdfdfd" stroke="#fdfdfd"></path><path d="M1203.8 780.4L1248.8 651.1L1082.3 650.1Z" fill="#f8f8f8" stroke="#f8f8f8"></path><path d="M1082.3 650.1L1248.8 651.1L1259.8 444.9Z" fill="#f0f0f0" stroke="#f0f0f0"></path><path d="M1259.8 444.9L1387.4 425.9L1226.8 307.6Z" fill="#eeeeee" stroke="#eeeeee"></path><path d="M1364.4 621.1L1387.4 425.9L1259.8 444.9Z" fill="#f0f0f0" stroke="#f0f0f0"></path><path d="M895.7 755.4L1014.3 795.4L1082.3 650.1Z" fill="#f8f8f8" stroke="#f8f8f8"></path><path d="M1401.4 137.3L1248.8 0L1225.8 184.3Z" fill="#eaeaea" stroke="#eaeaea"></path><path d="M512.6 0L545.6 178.3L665.2 150.3Z" fill="#f6f6f6" stroke="#f6f6f6"></path><path d="M665.2 150.3L545.6 178.3L686.2 304.6Z" fill="#f0f0f0" stroke="#f0f0f0"></path><path d="M497.6 591.1L691.2 752.4L717.2 627.1Z" fill="#f6f6f6" stroke="#f6f6f6"></path><path d="M545.6 178.3L504.6 301.6L686.2 304.6Z" fill="#fdfdfd" stroke="#fdfdfd"></path><path d="M870.7 0L665.2 0L845.7 170.3Z" fill="#f4f4f4" stroke="#f4f4f4"></path><path d="M1370.4 750.4L1364.4 621.1L1248.8 651.1Z" fill="#f6f6f6" stroke="#f6f6f6"></path><path d="M1248.8 651.1L1364.4 621.1L1259.8 444.9Z" fill="#f4f4f4" stroke="#f4f4f4"></path><path d="M497.6 591.1L717.2 627.1L669.2 474.9Z" fill="#eaeaea" stroke="#eaeaea"></path><path d="M717.2 627.1L691.2 752.4L866.7 628.1Z" fill="#fbfbfb" stroke="#fbfbfb"></path><path d="M880.7 923.7L1017.3 889.7L1014.3 795.4Z" fill="#f0f0f0" stroke="#f0f0f0"></path><path d="M1551.9 277.6L1401.4 137.3L1364.4 272.6Z" fill="#fdfdfd" stroke="#fdfdfd"></path><path d="M1364.4 272.6L1401.4 137.3L1225.8 184.3Z" fill="#f0f0f0" stroke="#f0f0f0"></path><path d="M1014.3 795.4L1203.8 780.4L1082.3 650.1Z" fill="#eaeaea" stroke="#eaeaea"></path><path d="M504.6 301.6L492.6 482.9L669.2 474.9Z" fill="#f4f4f4" stroke="#f4f4f4"></path><path d="M492.6 482.9L497.6 591.1L669.2 474.9Z" fill="#ffffff" stroke="#ffffff"></path><path d="M880.7 923.7L1014.3 795.4L895.7 755.4Z" fill="#ffffff" stroke="#ffffff"></path><path d="M1014.3 795.4L1017.3 889.7L1203.8 780.4Z" fill="#fbfbfb" stroke="#fbfbfb"></path><path d="M1401.4 137.3L1407.4 0L1248.8 0Z" fill="#f0f0f0" stroke="#f0f0f0"></path><path d="M1369.4 901.7L1370.4 750.4L1203.8 780.4Z" fill="#ececec" stroke="#ececec"></path><path d="M1203.8 780.4L1370.4 750.4L1248.8 651.1Z" fill="#fbfbfb" stroke="#fbfbfb"></path><path d="M1364.4 621.1L1540.9 489.9L1387.4 425.9Z" fill="#ffffff" stroke="#ffffff"></path><path d="M665.2 0L512.6 0L665.2 150.3Z" fill="#ffffff" stroke="#ffffff"></path><path d="M357.1 166.3L347.1 319.6L504.6 301.6Z" fill="#fdfdfd" stroke="#fdfdfd"></path><path d="M504.6 301.6L347.1 319.6L492.6 482.9Z" fill="#fbfbfb" stroke="#fbfbfb"></path><path d="M702.2 911.7L880.7 923.7L895.7 755.4Z" fill="#f4f4f4" stroke="#f4f4f4"></path><path d="M702.2 911.7L895.7 755.4L691.2 752.4Z" fill="#f4f4f4" stroke="#f4f4f4"></path><path d="M1600.9 589.1L1540.9 489.9L1364.4 621.1Z" fill="#eeeeee" stroke="#eeeeee"></path><path d="M1387.4 425.9L1551.9 277.6L1364.4 272.6Z" fill="#eeeeee" stroke="#eeeeee"></path><path d="M1401.4 137.3L1551.9 0L1407.4 0Z" fill="#eaeaea" stroke="#eaeaea"></path><path d="M1540.9 489.9L1551.9 277.6L1387.4 425.9Z" fill="#eaeaea" stroke="#eaeaea"></path><path d="M519.6 907.7L702.2 911.7L691.2 752.4Z" fill="#fbfbfb" stroke="#fbfbfb"></path><path d="M1551.9 277.6L1556.9 167.3L1401.4 137.3Z" fill="#eaeaea" stroke="#eaeaea"></path><path d="M357.1 166.3L504.6 301.6L545.6 178.3Z" fill="#ffffff" stroke="#ffffff"></path><path d="M492.6 482.9L338.1 593.1L497.6 591.1Z" fill="#f8f8f8" stroke="#f8f8f8"></path><path d="M497.6 591.1L501.6 770.4L691.2 752.4Z" fill="#ffffff" stroke="#ffffff"></path><path d="M338.1 593.1L501.6 770.4L497.6 591.1Z" fill="#fbfbfb" stroke="#fbfbfb"></path><path d="M1017.3 889.7L1229.8 928.7L1203.8 780.4Z" fill="#f4f4f4" stroke="#f4f4f4"></path><path d="M1020.3 1080L1229.8 928.7L1017.3 889.7Z" fill="#eaeaea" stroke="#eaeaea"></path><path d="M347.1 319.6L338.1 452.9L492.6 482.9Z" fill="#f4f4f4" stroke="#f4f4f4"></path><path d="M512.6 0L357.1 166.3L545.6 178.3Z" fill="#ffffff" stroke="#ffffff"></path><path d="M347.1 319.6L189.5 332.6L338.1 452.9Z" fill="#f0f0f0" stroke="#f0f0f0"></path><path d="M338.1 452.9L338.1 593.1L492.6 482.9Z" fill="#ececec" stroke="#ececec"></path><path d="M1533.9 743.4L1600.9 589.1L1364.4 621.1Z" fill="#fbfbfb" stroke="#fbfbfb"></path><path d="M1745.5 301.6L1717.5 171.3L1551.9 277.6Z" fill="#fdfdfd" stroke="#fdfdfd"></path><path d="M1551.9 277.6L1717.5 171.3L1556.9 167.3Z" fill="#f6f6f6" stroke="#f6f6f6"></path><path d="M1533.9 743.4L1364.4 621.1L1370.4 750.4Z" fill="#fdfdfd" stroke="#fdfdfd"></path><path d="M1229.8 928.7L1369.4 901.7L1203.8 780.4Z" fill="#f6f6f6" stroke="#f6f6f6"></path><path d="M1710.5 0L1551.9 0L1556.9 167.3Z" fill="#ffffff" stroke="#ffffff"></path><path d="M1556.9 167.3L1551.9 0L1401.4 137.3Z" fill="#f2f2f2" stroke="#f2f2f2"></path><path d="M1546.9 894.7L1533.9 743.4L1370.4 750.4Z" fill="#f2f2f2" stroke="#f2f2f2"></path><path d="M512.6 0L358.1 0L357.1 166.3Z" fill="#f0f0f0" stroke="#f0f0f0"></path><path d="M357.1 166.3L189.5 332.6L347.1 319.6Z" fill="#f2f2f2" stroke="#f2f2f2"></path><path d="M349.1 925.7L519.6 907.7L501.6 770.4Z" fill="#ffffff" stroke="#ffffff"></path><path d="M501.6 770.4L519.6 907.7L691.2 752.4Z" fill="#f6f6f6" stroke="#f6f6f6"></path><path d="M881.7 1080L1020.3 1080L880.7 923.7Z" fill="#fbfbfb" stroke="#fbfbfb"></path><path d="M881.7 1080L880.7 923.7L702.2 911.7Z" fill="#eeeeee" stroke="#eeeeee"></path><path d="M880.7 923.7L1020.3 1080L1017.3 889.7Z" fill="#f4f4f4" stroke="#f4f4f4"></path><path d="M1229.8 928.7L1229.8 1080L1369.4 901.7Z" fill="#fbfbfb" stroke="#fbfbfb"></path><path d="M688.2 1080L881.7 1080L702.2 911.7Z" fill="#ececec" stroke="#ececec"></path><path d="M1020.3 1080L1229.8 1080L1229.8 928.7Z" fill="#fdfdfd" stroke="#fdfdfd"></path><path d="M1768.5 752.4L1708.5 633.1L1533.9 743.4Z" fill="#ececec" stroke="#ececec"></path><path d="M1745.5 301.6L1551.9 277.6L1540.9 489.9Z" fill="#f6f6f6" stroke="#f6f6f6"></path><path d="M146.5 136.3L189.5 332.6L357.1 166.3Z" fill="#eeeeee" stroke="#eeeeee"></path><path d="M338.1 452.9L178.5 458.9L338.1 593.1Z" fill="#ececec" stroke="#ececec"></path><path d="M519.6 907.7L688.2 1080L702.2 911.7Z" fill="#f8f8f8" stroke="#f8f8f8"></path><path d="M1781.5 424.9L1745.5 301.6L1540.9 489.9Z" fill="#ececec" stroke="#ececec"></path><path d="M1781.5 424.9L1540.9 489.9L1600.9 589.1Z" fill="#fdfdfd" stroke="#fdfdfd"></path><path d="M338.1 593.1L314.1 790.4L501.6 770.4Z" fill="#fdfdfd" stroke="#fdfdfd"></path><path d="M519.6 907.7L498.6 1080L688.2 1080Z" fill="#f0f0f0" stroke="#f0f0f0"></path><path d="M166.5 733.4L314.1 790.4L338.1 593.1Z" fill="#f6f6f6" stroke="#f6f6f6"></path><path d="M1546.9 894.7L1370.4 750.4L1369.4 901.7Z" fill="#ececec" stroke="#ececec"></path><path d="M1533.9 743.4L1708.5 633.1L1600.9 589.1Z" fill="#f8f8f8" stroke="#f8f8f8"></path><path d="M1414.4 1080L1546.9 894.7L1369.4 901.7Z" fill="#ffffff" stroke="#ffffff"></path><path d="M189.5 332.6L178.5 458.9L338.1 452.9Z" fill="#fbfbfb" stroke="#fbfbfb"></path><path d="M1708.5 633.1L1781.5 424.9L1600.9 589.1Z" fill="#f4f4f4" stroke="#f4f4f4"></path><path d="M1920 151.3L1710.5 0L1717.5 171.3Z" fill="#fdfdfd" stroke="#fdfdfd"></path><path d="M1920 151.3L1717.5 171.3L1745.5 301.6Z" fill="#f8f8f8" stroke="#f8f8f8"></path><path d="M1717.5 171.3L1710.5 0L1556.9 167.3Z" fill="#f4f4f4" stroke="#f4f4f4"></path><path d="M200.5 915.7L349.1 925.7L314.1 790.4Z" fill="#fdfdfd" stroke="#fdfdfd"></path><path d="M314.1 790.4L349.1 925.7L501.6 770.4Z" fill="#f6f6f6" stroke="#f6f6f6"></path><path d="M184.5 0L146.5 136.3L357.1 166.3Z" fill="#eaeaea" stroke="#eaeaea"></path><path d="M189.5 332.6L0 314.6L178.5 458.9Z" fill="#fdfdfd" stroke="#fdfdfd"></path><path d="M1229.8 1080L1414.4 1080L1369.4 901.7Z" fill="#f0f0f0" stroke="#f0f0f0"></path><path d="M0 497.9L140.5 581.1L178.5 458.9Z" fill="#ececec" stroke="#ececec"></path><path d="M178.5 458.9L140.5 581.1L338.1 593.1Z" fill="#f8f8f8" stroke="#f8f8f8"></path><path d="M358.1 0L184.5 0L357.1 166.3Z" fill="#fdfdfd" stroke="#fdfdfd"></path><path d="M349.1 925.7L498.6 1080L519.6 907.7Z" fill="#f2f2f2" stroke="#f2f2f2"></path><path d="M140.5 581.1L166.5 733.4L338.1 593.1Z" fill="#eaeaea" stroke="#eaeaea"></path><path d="M1920 631.1L1920 465.9L1781.5 424.9Z" fill="#f6f6f6" stroke="#f6f6f6"></path><path d="M1546.9 894.7L1768.5 752.4L1533.9 743.4Z" fill="#f0f0f0" stroke="#f0f0f0"></path><path d="M1749.5 920.7L1768.5 752.4L1546.9 894.7Z" fill="#ffffff" stroke="#ffffff"></path><path d="M1414.4 1080L1553.9 1080L1546.9 894.7Z" fill="#ececec" stroke="#ececec"></path><path d="M166.5 733.4L200.5 915.7L314.1 790.4Z" fill="#f8f8f8" stroke="#f8f8f8"></path><path d="M349.1 925.7L320.1 1080L498.6 1080Z" fill="#f8f8f8" stroke="#f8f8f8"></path><path d="M1781.5 424.9L1920 341.6L1745.5 301.6Z" fill="#fdfdfd" stroke="#fdfdfd"></path><path d="M1920 465.9L1920 341.6L1781.5 424.9Z" fill="#f2f2f2" stroke="#f2f2f2"></path><path d="M1920 631.1L1781.5 424.9L1708.5 633.1Z" fill="#fdfdfd" stroke="#fdfdfd"></path><path d="M1553.9 1080L1749.5 920.7L1546.9 894.7Z" fill="#eaeaea" stroke="#eaeaea"></path><path d="M1768.5 752.4L1920 631.1L1708.5 633.1Z" fill="#ffffff" stroke="#ffffff"></path><path d="M0 114.3L0 314.6L146.5 136.3Z" fill="#f8f8f8" stroke="#f8f8f8"></path><path d="M146.5 136.3L0 314.6L189.5 332.6Z" fill="#f2f2f2" stroke="#f2f2f2"></path><path d="M140.5 581.1L0 610.1L166.5 733.4Z" fill="#f8f8f8" stroke="#f8f8f8"></path><path d="M166.5 733.4L0 793.4L200.5 915.7Z" fill="#f6f6f6" stroke="#f6f6f6"></path><path d="M200.5 915.7L320.1 1080L349.1 925.7Z" fill="#f6f6f6" stroke="#f6f6f6"></path><path d="M1920 341.6L1920 151.3L1745.5 301.6Z" fill="#f0f0f0" stroke="#f0f0f0"></path><path d="M0 314.6L0 497.9L178.5 458.9Z" fill="#ffffff" stroke="#ffffff"></path><path d="M1920 756.4L1920 631.1L1768.5 752.4Z" fill="#ececec" stroke="#ececec"></path><path d="M0 0L0 114.3L146.5 136.3Z" fill="#ececec" stroke="#ececec"></path><path d="M0 497.9L0 610.1L140.5 581.1Z" fill="#f0f0f0" stroke="#f0f0f0"></path><path d="M1920 151.3L1920 0L1710.5 0Z" fill="#f0f0f0" stroke="#f0f0f0"></path><path d="M184.5 0L0 0L146.5 136.3Z" fill="#fbfbfb" stroke="#fbfbfb"></path><path d="M1920 928.7L1920 756.4L1768.5 752.4Z" fill="#f8f8f8" stroke="#f8f8f8"></path><path d="M1553.9 1080L1735.5 1080L1749.5 920.7Z" fill="#eaeaea" stroke="#eaeaea"></path><path d="M1749.5 920.7L1920 928.7L1768.5 752.4Z" fill="#f4f4f4" stroke="#f4f4f4"></path><path d="M0 610.1L0 793.4L166.5 733.4Z" fill="#eeeeee" stroke="#eeeeee"></path><path d="M200.5 915.7L148.5 1080L320.1 1080Z" fill="#eaeaea" stroke="#eaeaea"></path><path d="M0 886.7L148.5 1080L200.5 915.7Z" fill="#eeeeee" stroke="#eeeeee"></path><path d="M0 793.4L0 886.7L200.5 915.7Z" fill="#fbfbfb" stroke="#fbfbfb"></path><path d="M1920 1080L1920 928.7L1749.5 920.7Z" fill="#f6f6f6" stroke="#f6f6f6"></path><path d="M1735.5 1080L1920 1080L1749.5 920.7Z" fill="#fdfdfd" stroke="#fdfdfd"></path><path d="M0 886.7L0 1080L148.5 1080Z" fill="#fbfbfb" stroke="#fbfbfb"></path></g></svg>